<svg width="25" height="20" viewBox="0 0 25 20" fill="none" xmlns="http://www.w3.org/2000/svg">
<path d="M0.657895 0.657895V0C0.48341 0 0.316072 0.0693138 0.192693 0.192693C0.0693138 0.316072 0 0.48341 0 0.657895H0.657895ZM24.3421 0.657895H25C25 0.48341 24.9307 0.316072 24.8073 0.192693C24.6839 0.0693138 24.5166 0 24.3421 0V0.657895ZM0.657895 1.31579H24.3421V0H0.657895V1.31579ZM23.6842 0.657895V16.4474H25V0.657895H23.6842ZM21.7105 18.4211H3.28947V19.7368H21.7105V18.4211ZM1.31579 16.4474V0.657895H0V16.4474H1.31579ZM3.28947 18.4211C2.76602 18.4211 2.26401 18.2131 1.89387 17.843C1.52373 17.4728 1.31579 16.9708 1.31579 16.4474H0C0 17.3198 0.346569 18.1565 0.963464 18.7734C1.58036 19.3903 2.41705 19.7368 3.28947 19.7368V18.4211ZM23.6842 16.4474C23.6842 16.9708 23.4763 17.4728 23.1061 17.843C22.736 18.2131 22.234 18.4211 21.7105 18.4211V19.7368C22.5829 19.7368 23.4196 19.3903 24.0365 18.7734C24.6534 18.1565 25 17.3198 25 16.4474H23.6842Z" fill="white"/>
<path d="M0.657715 0.65625L12.4998 12.4984L24.3419 0.65625" stroke="white" stroke-linecap="round" stroke-linejoin="round"/>
</svg>
