<svg width="36" height="36" viewBox="0 0 36 36" fill="none" xmlns="http://www.w3.org/2000/svg">
<path d="M35.6499 14.4747H34.2V14.4H18V21.6H28.1727C26.6886 25.7913 22.7007 28.8 18 28.8C12.0357 28.8 7.2 23.9643 7.2 18C7.2 12.0357 12.0357 7.2 18 7.2C20.7531 7.2 23.2578 8.2386 25.1649 9.9351L30.2562 4.8438C27.0414 1.8477 22.7412 0 18 0C8.0595 0 0 8.0595 0 18C0 27.9405 8.0595 36 18 36C27.9405 36 36 27.9405 36 18C36 16.7931 35.8758 15.615 35.6499 14.4747Z" fill="#FFC107"/>
<path d="M2.07617 9.6219L7.99007 13.959C9.59027 9.9972 13.4657 7.2 18.0008 7.2C20.7539 7.2 23.2586 8.2386 25.1657 9.9351L30.257 4.8438C27.0422 1.8477 22.742 0 18.0008 0C11.087 0 5.09117 3.9033 2.07617 9.6219Z" fill="#FF3D00"/>
<path d="M18.0001 35.992C22.6495 35.992 26.8741 34.2127 30.0682 31.3192L24.4972 26.605C22.6293 28.0256 20.3468 28.7939 18.0001 28.792C13.3183 28.792 9.34299 25.8067 7.84539 21.6406L1.97559 26.1631C4.95459 31.9924 11.0044 35.992 18.0001 35.992Z" fill="#4CAF50"/>
<path d="M35.6499 14.4731H34.2V14.3984H18V21.5984H28.1727C27.4628 23.5932 26.184 25.3363 24.4944 26.6123L24.4971 26.6105L30.0681 31.3247C29.6739 31.6829 36 26.9984 36 17.9984C36 16.7915 35.8758 15.6134 35.6499 14.4731Z" fill="#1976D2"/>
</svg>
