<svg width="14" height="22" viewBox="0 0 14 22" fill="none" xmlns="http://www.w3.org/2000/svg">
<path d="M11.9412 0H2.05882C1.51279 0 0.98912 0.214616 0.603015 0.596634C0.216911 0.978653 0 1.49678 0 2.03704V19.963C0 20.5032 0.216911 21.0213 0.603015 21.4034C0.98912 21.7854 1.51279 22 2.05882 22H11.9412C12.4872 22 13.0109 21.7854 13.397 21.4034C13.7831 21.0213 14 20.5032 14 19.963V2.03704C14 1.49678 13.7831 0.978653 13.397 0.596634C13.0109 0.214616 12.4872 0 11.9412 0ZM0.823529 4.07407H13.1765V17.9259H0.823529V4.07407ZM2.05882 0.814815H11.9412C12.2688 0.814815 12.583 0.943584 12.8147 1.1728C13.0463 1.40201 13.1765 1.71288 13.1765 2.03704V3.25926H0.823529V2.03704C0.823529 1.71288 0.953676 1.40201 1.18534 1.1728C1.417 0.943584 1.7312 0.814815 2.05882 0.814815ZM11.9412 21.1852H2.05882C1.7312 21.1852 1.417 21.0564 1.18534 20.8272C0.953676 20.598 0.823529 20.2871 0.823529 19.963V18.7407H13.1765V19.963C13.1765 20.2871 13.0463 20.598 12.8147 20.8272C12.583 21.0564 12.2688 21.1852 11.9412 21.1852Z" fill="#111111"/>
</svg>
