<svg width="22" height="22" viewBox="0 0 22 22" fill="none" xmlns="http://www.w3.org/2000/svg">
<path fill-rule="evenodd" clip-rule="evenodd" d="M4.09302 8.24028V6.90698C4.09302 5.07513 4.82072 3.31832 6.11603 2.02301C7.41134 0.727697 9.16816 0 11 0C12.8318 0 14.5887 0.727697 15.884 2.02301C17.1793 3.31832 17.907 5.07513 17.907 6.90698V8.24028C18.1393 8.25665 18.3572 8.27712 18.5639 8.30577C19.4848 8.42856 20.2605 8.6946 20.8765 9.30958C21.4925 9.92558 21.7565 10.7012 21.8813 11.6221C22 12.5093 22 13.638 22 15.0367V15.1493C22 16.5481 22 17.6767 21.8813 18.5639C21.7565 19.4848 21.4925 20.2605 20.8765 20.8765C20.2605 21.4925 19.4848 21.7565 18.5639 21.8813C17.6767 22 16.5481 22 15.1493 22H6.8507C5.45191 22 4.32326 22 3.43609 21.8813C2.51516 21.7565 1.73953 21.4925 1.12353 20.8765C0.507535 20.2605 0.243535 19.4848 0.119721 18.5639C-1.52477e-08 17.6767 0 16.5481 0 15.1493V15.0367C0 13.638 -1.52477e-08 12.5093 0.119721 11.6221C0.242512 10.7012 0.508558 9.92558 1.12353 9.30958C1.73953 8.69358 2.51516 8.42958 3.43609 8.30577C3.65427 8.27655 3.87337 8.2547 4.09302 8.24028ZM5.62791 6.90698C5.62791 5.48221 6.19389 4.1158 7.20136 3.10833C8.20882 2.10087 9.57523 1.53488 11 1.53488C12.4248 1.53488 13.7912 2.10087 14.7986 3.10833C15.8061 4.1158 16.3721 5.48221 16.3721 6.90698V8.18912C15.9904 8.18605 15.5821 8.18605 15.1493 8.18605H6.8507C6.41786 8.18605 6.0106 8.18605 5.62791 8.18912V6.90698ZM2.20921 10.3953C2.49265 10.1118 2.88967 9.92763 3.64177 9.82633C4.4133 9.72298 5.4386 9.72093 6.90698 9.72093H15.093C16.5614 9.72093 17.5857 9.72298 18.3593 9.82633C19.1103 9.92763 19.5073 10.1128 19.7908 10.3953C20.0742 10.6787 20.2584 11.0757 20.3597 11.8278C20.4631 12.6004 20.4651 13.6247 20.4651 15.093C20.4651 16.5614 20.4631 17.5857 20.3597 18.3593C20.2584 19.1103 20.0732 19.5073 19.7908 19.7908C19.5073 20.0742 19.1103 20.2584 18.3582 20.3597C17.5857 20.4631 16.5614 20.4651 15.093 20.4651H6.90698C5.4386 20.4651 4.4133 20.4631 3.64074 20.3597C2.88967 20.2584 2.49265 20.0732 2.20921 19.7908C1.92577 19.5073 1.74158 19.1103 1.64028 18.3582C1.53693 17.5857 1.53488 16.5614 1.53488 15.093C1.53488 13.6247 1.53693 12.5993 1.64028 11.8268C1.74158 11.0757 1.92679 10.6787 2.20921 10.3953Z" fill="#111111"/>
</svg>
