<svg width="21" height="21" viewBox="0 0 21 21" fill="none" xmlns="http://www.w3.org/2000/svg">
<path d="M19.6414 16.0307C18.897 15.2807 17.0942 14.1862 16.2195 13.7451C15.0804 13.1713 14.9867 13.1245 14.0914 13.7896C13.4942 14.2335 13.0972 14.6301 12.3983 14.481C11.6994 14.332 10.1806 13.4915 8.85076 12.1659C7.52091 10.8402 6.63169 9.27742 6.48216 8.58086C6.33263 7.8843 6.73576 7.49195 7.17544 6.89336C7.79513 6.04961 7.74826 5.90898 7.21857 4.76992C6.8056 3.88398 5.67919 2.09805 4.92638 1.35742C4.12107 0.561952 4.12107 0.702577 3.60216 0.918202C3.17971 1.09595 2.77443 1.312 2.39138 1.56367C1.64138 2.06195 1.22513 2.47586 0.934038 3.09789C0.642944 3.71992 0.512163 5.1782 2.01544 7.90914C3.51873 10.6401 4.57341 12.0365 6.75638 14.2134C8.93935 16.3902 10.6179 17.5607 13.0719 18.937C16.1075 20.6371 17.2719 20.3057 17.8958 20.0151C18.5197 19.7245 18.9354 19.312 19.4347 18.562C19.687 18.1796 19.9035 17.7747 20.0815 17.3526C20.2976 16.8355 20.4383 16.8355 19.6414 16.0307Z" stroke="white" stroke-width="1.5" stroke-miterlimit="10"/>
</svg>
