<svg width="20" height="19" viewBox="0 0 20 19" fill="none" xmlns="http://www.w3.org/2000/svg">
<path d="M19.6424 17.8403C18.1973 15.3421 15.9705 13.5507 13.3717 12.7015C14.6572 11.9362 15.6559 10.7702 16.2145 9.38236C16.7731 7.99455 16.8608 6.46173 16.4639 5.0193C16.0671 3.57687 15.2077 2.30459 14.0178 1.39784C12.8279 0.491084 11.3732 0 9.87719 0C8.38116 0 6.9265 0.491084 5.73659 1.39784C4.54668 2.30459 3.68731 3.57687 3.29046 5.0193C2.89362 6.46173 2.98123 7.99455 3.53986 9.38236C4.09848 10.7702 5.09722 11.9362 6.38271 12.7015C3.7839 13.5497 1.55704 15.3411 0.111995 17.8403C0.0590022 17.9267 0.0238528 18.0228 0.00862015 18.123C-0.00661252 18.2233 -0.00161988 18.3255 0.0233035 18.4238C0.0482269 18.522 0.0925762 18.6143 0.153735 18.6951C0.214893 18.7759 0.291622 18.8437 0.379394 18.8944C0.467166 18.9451 0.564204 18.9777 0.664781 18.9903C0.765358 19.0029 0.867439 18.9952 0.964999 18.9677C1.06256 18.9402 1.15362 18.8934 1.23282 18.8302C1.31201 18.7669 1.37773 18.6884 1.4261 18.5993C3.21367 15.51 6.37322 13.6655 9.87719 13.6655C13.3812 13.6655 16.5407 15.51 18.3283 18.5993C18.3766 18.6884 18.4424 18.7669 18.5216 18.8302C18.6008 18.8934 18.6918 18.9402 18.7894 18.9677C18.8869 18.9952 18.989 19.0029 19.0896 18.9903C19.1902 18.9777 19.2872 18.9451 19.375 18.8944C19.4628 18.8437 19.5395 18.7759 19.6006 18.6951C19.6618 18.6143 19.7061 18.522 19.7311 18.4238C19.756 18.3255 19.761 18.2233 19.7458 18.123C19.7305 18.0228 19.6954 17.9267 19.6424 17.8403ZM4.56383 6.83404C4.56383 5.78316 4.87545 4.75588 5.45929 3.8821C6.04313 3.00832 6.87296 2.32729 7.84385 1.92514C8.81474 1.52298 9.88308 1.41776 10.9138 1.62278C11.9445 1.8278 12.8912 2.33384 13.6343 3.07693C14.3774 3.82002 14.8834 4.76677 15.0885 5.79746C15.2935 6.82815 15.1882 7.89649 14.7861 8.86738C14.3839 9.83827 13.7029 10.6681 12.8291 11.2519C11.9554 11.8358 10.9281 12.1474 9.87719 12.1474C8.46846 12.1459 7.11786 11.5856 6.12174 10.5895C5.12562 9.59337 4.56534 8.24277 4.56383 6.83404Z" fill="#111111"/>
</svg>
