<svg width="20" height="20" viewBox="0 0 20 20" fill="none" xmlns="http://www.w3.org/2000/svg">
<path fill-rule="evenodd" clip-rule="evenodd" d="M3.72093 7.49116V6.27907C3.72093 4.61376 4.38247 3.01665 5.56003 1.8391C6.73758 0.661543 8.33469 0 10 0C11.6653 0 13.2624 0.661543 14.44 1.8391C15.6175 3.01665 16.2791 4.61376 16.2791 6.27907V7.49116C16.4902 7.50605 16.6884 7.52465 16.8763 7.5507C17.7135 7.66233 18.4186 7.90419 18.9786 8.46326C19.5386 9.02326 19.7786 9.72837 19.8921 10.5656C20 11.3721 20 12.3981 20 13.6698V13.7721C20 15.0437 20 16.0698 19.8921 16.8763C19.7786 17.7135 19.5386 18.4186 18.9786 18.9786C18.4186 19.5386 17.7135 19.7786 16.8763 19.8921C16.0698 20 15.0437 20 13.7721 20H6.22791C4.95628 20 3.93023 20 3.12372 19.8921C2.28651 19.7786 1.5814 19.5386 1.0214 18.9786C0.461395 18.4186 0.221395 17.7135 0.108837 16.8763C-1.38615e-08 16.0698 0 15.0437 0 13.7721V13.6698C0 12.3981 -1.38615e-08 11.3721 0.108837 10.5656C0.220465 9.72837 0.462326 9.02326 1.0214 8.46326C1.5814 7.90326 2.28651 7.66326 3.12372 7.5507C3.32206 7.52413 3.52125 7.50428 3.72093 7.49116ZM5.11628 6.27907C5.11628 4.98383 5.63081 3.74163 6.54669 2.82576C7.46256 1.90988 8.70476 1.39535 10 1.39535C11.2952 1.39535 12.5374 1.90988 13.4533 2.82576C14.3692 3.74163 14.8837 4.98383 14.8837 6.27907V7.44465C14.5367 7.44186 14.1656 7.44186 13.7721 7.44186H6.22791C5.83442 7.44186 5.46419 7.44186 5.11628 7.44465V6.27907ZM2.00837 9.45023C2.26605 9.19256 2.62698 9.02512 3.3107 8.93302C4.01209 8.83907 4.94419 8.83721 6.27907 8.83721H13.7209C15.0558 8.83721 15.987 8.83907 16.6902 8.93302C17.373 9.02512 17.734 9.19349 17.9916 9.45023C18.2493 9.70791 18.4167 10.0688 18.5088 10.7526C18.6028 11.4549 18.6047 12.386 18.6047 13.7209C18.6047 15.0558 18.6028 15.987 18.5088 16.6902C18.4167 17.373 18.2484 17.734 17.9916 17.9916C17.734 18.2493 17.373 18.4167 16.6893 18.5088C15.987 18.6028 15.0558 18.6047 13.7209 18.6047H6.27907C4.94419 18.6047 4.01209 18.6028 3.30977 18.5088C2.62698 18.4167 2.26605 18.2484 2.00837 17.9916C1.7507 17.734 1.58326 17.373 1.49116 16.6893C1.39721 15.987 1.39535 15.0558 1.39535 13.7209C1.39535 12.386 1.39721 11.454 1.49116 10.7516C1.58326 10.0688 1.75163 9.70791 2.00837 9.45023Z" fill="#111111"/>
</svg>
